<?xml version="1.0" encoding="UTF-8"?>
<!DOCTYPE svg PUBLIC "-//W3C//DTD SVG 1.1//EN" "http://www.w3.org/Graphics/SVG/1.1/DTD/svg11.dtd">
<svg xmlns="http://www.w3.org/2000/svg" version="1.1" width="256px" height="256px" style="shape-rendering:geometricPrecision; text-rendering:geometricPrecision; image-rendering:optimizeQuality; fill-rule:evenodd; clip-rule:evenodd" xmlns:xlink="http://www.w3.org/1999/xlink">
<g><path style="opacity:0.168" fill="#fdfdfd" d="M 108.5,-0.5 C 108.833,-0.5 109.167,-0.5 109.5,-0.5C 109.833,0.833333 110.167,0.833333 110.5,-0.5C 111.167,-0.5 111.833,-0.5 112.5,-0.5C 112.833,0.833333 113.167,0.833333 113.5,-0.5C 113.833,-0.5 114.167,-0.5 114.5,-0.5C 115.167,0.833333 115.833,0.833333 116.5,-0.5C 123.833,-0.5 131.167,-0.5 138.5,-0.5C 140.5,0.833333 142.5,0.833333 144.5,-0.5C 145.167,-0.5 145.833,-0.5 146.5,-0.5C 147.505,1.74254 149.005,2.07587 151,0.5C 152.261,0.759083 153.261,1.42575 154,2.5C 154.333,2.16667 154.667,1.83333 155,1.5C 199.838,11.9995 230.838,38.6661 248,81.5C 251.14,93.0709 253.64,104.404 255.5,115.5C 255.5,116.5 255.5,117.5 255.5,118.5C 254.167,119.167 254.167,119.833 255.5,120.5C 255.5,126.833 255.5,133.167 255.5,139.5C 254.116,145.988 252.95,152.654 252,159.5C 250.31,166.242 248.143,172.408 245.5,178C 246.5,180.091 245.833,181.757 243.5,183C 236.29,200.163 224.957,214.997 209.5,227.5C 204.512,231.956 199.012,235.956 193,239.5C 176.495,247.273 158.995,252.606 140.5,255.5C 140.167,255.5 139.833,255.5 139.5,255.5C 139.167,254.167 138.833,254.167 138.5,255.5C 133.5,255.5 128.5,255.5 123.5,255.5C 123.167,254.167 122.833,254.167 122.5,255.5C 120.833,255.5 119.167,255.5 117.5,255.5C 117.167,254.167 116.833,254.167 116.5,255.5C 115.167,255.5 113.833,255.5 112.5,255.5C 112.217,254.711 111.717,254.044 111,253.5C 82.0984,251.45 56.7651,239.783 35,218.5C 33.5619,217.1 32.7286,215.433 32.5,213.5C 31.325,213.719 30.325,213.386 29.5,212.5C 15.9111,195.161 6.57776,175.994 1.5,155C 1.83333,154 2.16667,153 2.5,152C 1.13243,149.196 0.132425,146.362 -0.5,143.5C -0.5,142.5 -0.5,141.5 -0.5,140.5C 0.833333,139.5 0.833333,138.5 -0.5,137.5C -0.5,137.167 -0.5,136.833 -0.5,136.5C 0.833333,135.833 0.833333,135.167 -0.5,134.5C -0.5,130.5 -0.5,126.5 -0.5,122.5C 0.833333,122.167 0.833333,121.833 -0.5,121.5C -0.5,120.5 -0.5,119.5 -0.5,118.5C 0.833333,118.167 0.833333,117.833 -0.5,117.5C -0.5,117.167 -0.5,116.833 -0.5,116.5C 0.833333,115.833 0.833333,115.167 -0.5,114.5C -0.5,113.5 -0.5,112.5 -0.5,111.5C 1.58223,110.415 1.91556,108.915 0.5,107C 7.80918,61.6378 32.4758,29.1378 74.5,9.5C 74.56,10.0431 74.8933,10.3764 75.5,10.5C 77.3586,8.80764 79.3586,7.30764 81.5,6C 86.0261,5.54682 90.3594,4.38015 94.5,2.5C 95.1667,2.83333 95.8333,3.16667 96.5,3.5C 99.5155,1.46432 102.682,0.797655 106,1.5C 107.301,1.36126 108.134,0.694594 108.5,-0.5 Z"/></g>
<g><path style="opacity:0.004" fill="#fefffe" d="M 74.5,8.5 C 75.8333,9.16667 75.8333,9.16667 74.5,8.5 Z"/></g>
<g><path style="opacity:0.922" fill="#333333" d="M 139.5,14.5 C 128.482,14.3808 117.482,14.7141 106.5,15.5C 112.762,13.9805 119.262,13.3138 126,13.5C 130.68,13.5009 135.18,13.8342 139.5,14.5 Z"/></g>
<g><path style="opacity:0.999" fill="#010101" d="M 139.5,14.5 C 141.5,14.5 143.5,14.5 145.5,14.5C 146.261,15.3909 147.261,16.0576 148.5,16.5C 150.341,70.989 128.341,112.822 82.5,142C 62.6062,153.131 41.2728,159.298 18.5,160.5C 5.14031,107.413 20.4736,64.58 64.5,32C 77.3664,23.6549 91.3664,18.1549 106.5,15.5C 117.482,14.7141 128.482,14.3808 139.5,14.5 Z"/></g>
<g><path style="opacity:1" fill="#101010" d="M 145.5,14.5 C 149.521,15.5031 153.521,16.5031 157.5,17.5C 159.049,74.3937 136.049,118.227 88.5,149C 68.1773,160.663 46.344,167.496 23,169.5C 22.5831,168.244 21.7498,167.577 20.5,167.5C 19.4336,165.299 18.767,162.965 18.5,160.5C 41.2728,159.298 62.6062,153.131 82.5,142C 128.341,112.822 150.341,70.989 148.5,16.5C 147.261,16.0576 146.261,15.3909 145.5,14.5 Z"/></g>
<g><path style="opacity:0.999" fill="#202020" d="M 157.5,17.5 C 159.833,18.1667 162.167,18.8333 164.5,19.5C 164.726,83.13 136.392,130.297 79.5,161C 61.6991,169.618 43.0325,174.118 23.5,174.5C 22.3052,172.249 21.3052,169.915 20.5,167.5C 21.7498,167.577 22.5831,168.244 23,169.5C 46.344,167.496 68.1773,160.663 88.5,149C 136.049,118.227 159.049,74.3937 157.5,17.5 Z"/></g>
<g><path style="opacity:1" fill="#2c2c2c" d="M 164.5,19.5 C 166.954,20.2271 169.287,21.2271 171.5,22.5C 169.856,85.9213 141.523,133.088 86.5,164C 67.5086,173.728 47.5086,179.228 26.5,180.5C 25.5,178.5 24.5,176.5 23.5,174.5C 43.0325,174.118 61.6991,169.618 79.5,161C 136.392,130.297 164.726,83.13 164.5,19.5 Z"/></g>
<g><path style="opacity:0.999" fill="#393939" d="M 171.5,22.5 C 173.819,22.9925 175.819,23.9925 177.5,25.5C 174.639,88.4589 146.306,135.959 92.5,168C 73.0054,178.248 52.3387,184.748 30.5,187.5C 29.1667,185.167 27.8333,182.833 26.5,180.5C 47.5086,179.228 67.5086,173.728 86.5,164C 141.523,133.088 169.856,85.9213 171.5,22.5 Z"/></g>
<g><path style="opacity:0.999" fill="#454545" d="M 177.5,25.5 C 179.284,25.8925 180.95,26.5592 182.5,27.5C 179.535,94.3084 148.868,143.808 90.5,176C 72.7377,184.607 54.071,190.107 34.5,192.5C 32.457,191.421 31.1237,189.754 30.5,187.5C 52.3387,184.748 73.0054,178.248 92.5,168C 146.306,135.959 174.639,88.4589 177.5,25.5 Z"/></g>
<g><path style="opacity:1" fill="#525252" d="M 182.5,27.5 C 184.833,28.8333 187.167,30.1667 189.5,31.5C 186.555,84.5564 164.555,128.056 123.5,162C 98.5586,181.797 70.2253,193.964 38.5,198.5C 36.6736,196.853 35.3403,194.853 34.5,192.5C 54.071,190.107 72.7377,184.607 90.5,176C 148.868,143.808 179.535,94.3084 182.5,27.5 Z"/></g>
<g><path style="opacity:1" fill="#5e5e5e" d="M 189.5,31.5 C 191.909,32.7007 193.909,34.3674 195.5,36.5C 188.985,102.747 156.985,152.247 99.5,185C 82.5316,193.563 64.6982,199.729 46,203.5C 44.4672,203.227 42.9672,202.894 41.5,202.5C 40.5,201.167 39.5,199.833 38.5,198.5C 70.2253,193.964 98.5586,181.797 123.5,162C 164.555,128.056 186.555,84.5564 189.5,31.5 Z"/></g>
<g><path style="opacity:0.999" fill="#6b6b6b" d="M 195.5,36.5 C 198.089,37.4194 200.089,39.086 201.5,41.5C 191.062,119.426 149.395,172.926 76.5,202C 66.8775,205.398 57.2108,207.565 47.5,208.5C 45.1667,206.833 43.1667,204.833 41.5,202.5C 42.9672,202.894 44.4672,203.227 46,203.5C 64.6982,199.729 82.5316,193.563 99.5,185C 156.985,152.247 188.985,102.747 195.5,36.5 Z"/></g>
<g><path style="opacity:0.999" fill="#777777" d="M 201.5,41.5 C 203.749,42.0798 205.415,43.4131 206.5,45.5C 198.392,106.76 168.726,154.594 117.5,189C 97.8538,200.822 76.8538,209.322 54.5,214.5C 51.5526,213.219 49.2193,211.219 47.5,208.5C 57.2108,207.565 66.8775,205.398 76.5,202C 149.395,172.926 191.062,119.426 201.5,41.5 Z"/></g>
<g><path style="opacity:0.999" fill="#848484" d="M 206.5,45.5 C 208.833,47.1667 210.833,49.1667 212.5,51.5C 198.956,130.572 154.623,184.738 79.5,214C 73.0278,216.437 66.3611,217.937 59.5,218.5C 57.2512,217.92 55.5846,216.587 54.5,214.5C 76.8538,209.322 97.8538,200.822 117.5,189C 168.726,154.594 198.392,106.76 206.5,45.5 Z"/></g>
<g><path style="opacity:0.999" fill="#909090" d="M 212.5,51.5 C 214.063,52.9448 215.396,54.6115 216.5,56.5C 216.539,57.5832 216.873,58.5832 217.5,59.5C 201.087,138.072 155.42,191.572 80.5,220C 75.8916,221.482 71.2249,222.649 66.5,223.5C 63.6298,222.567 61.2964,220.9 59.5,218.5C 66.3611,217.937 73.0278,216.437 79.5,214C 154.623,184.738 198.956,130.572 212.5,51.5 Z"/></g>
<g><path style="opacity:0.999" fill="#9d9d9d" d="M 216.5,56.5 C 218.853,58.8599 220.853,61.5265 222.5,64.5C 207.296,136.194 166.629,187.694 100.5,219C 91.5254,223.159 82.192,225.993 72.5,227.5C 70.1184,226.649 68.1184,225.316 66.5,223.5C 71.2249,222.649 75.8916,221.482 80.5,220C 155.42,191.572 201.087,138.072 217.5,59.5C 216.873,58.5832 216.539,57.5832 216.5,56.5 Z"/></g>
<g><path style="opacity:0.999" fill="#a9a9a9" d="M 222.5,64.5 C 224.588,66.3356 225.921,68.6689 226.5,71.5C 209.687,143.828 167.353,195.328 99.5,226C 93.7082,228.542 87.7082,230.375 81.5,231.5C 78.0534,230.917 75.0534,229.584 72.5,227.5C 82.192,225.993 91.5254,223.159 100.5,219C 166.629,187.694 207.296,136.194 222.5,64.5 Z"/></g>
<g><path style="opacity:0.999" fill="#b6b6b6" d="M 226.5,71.5 C 229.014,74.3645 230.68,77.6978 231.5,81.5C 210.318,156.015 163.652,207.348 91.5,235.5C 87.8632,234.737 84.5299,233.403 81.5,231.5C 87.7082,230.375 93.7082,228.542 99.5,226C 167.353,195.328 209.687,143.828 226.5,71.5 Z"/></g>
<g><path style="opacity:0.999" fill="#c2c2c2" d="M 231.5,81.5 C 233.293,83.4261 234.293,85.7594 234.5,88.5C 234.662,90.5273 234.495,92.5273 234,94.5C 211.406,160.758 168.24,208.258 104.5,237C 102.19,237.497 99.8568,237.663 97.5,237.5C 95.2143,237.405 93.2143,236.738 91.5,235.5C 163.652,207.348 210.318,156.015 231.5,81.5 Z"/></g>
<g><path style="opacity:0.998" fill="#cfcfcf" d="M 234.5,88.5 C 236.072,91.2154 237.072,94.2154 237.5,97.5C 237.737,101.273 237.237,104.94 236,108.5C 212.414,167.416 172.247,210.916 115.5,239C 112.518,239.498 109.518,239.665 106.5,239.5C 103.273,239.324 100.273,238.657 97.5,237.5C 99.8568,237.663 102.19,237.497 104.5,237C 168.24,208.258 211.406,160.758 234,94.5C 234.495,92.5273 234.662,90.5273 234.5,88.5 Z"/></g>
<g><path style="opacity:0.998" fill="#dbdbdb" d="M 237.5,97.5 C 238.657,100.273 239.324,103.273 239.5,106.5C 239.665,110.182 239.499,113.848 239,117.5C 216.09,171.743 178.59,212.576 126.5,240C 121.511,240.499 116.511,240.666 111.5,240.5C 109.585,240.784 107.919,240.451 106.5,239.5C 109.518,239.665 112.518,239.498 115.5,239C 172.247,210.916 212.414,167.416 236,108.5C 237.237,104.94 237.737,101.273 237.5,97.5 Z"/></g>
<g><path style="opacity:0.994" fill="#eaeaea" d="M 239.5,106.5 C 241.015,111.58 241.682,116.914 241.5,122.5C 241.543,127.567 241.043,132.567 240,137.5C 218.473,179.864 187.64,213.864 147.5,239.5C 140.253,240.974 132.92,241.64 125.5,241.5C 120.654,241.499 115.988,241.166 111.5,240.5C 116.511,240.666 121.511,240.499 126.5,240C 178.59,212.576 216.09,171.743 239,117.5C 239.499,113.848 239.665,110.182 239.5,106.5 Z"/></g>
<g><path style="opacity:0.004" fill="#fefffe" d="M 209.5,227.5 C 210.833,228.167 210.833,228.167 209.5,227.5 Z"/></g>
</svg>
